<?xml version="1.0" encoding="UTF-8" standalone="no"?>
<!-- Generator: Adobe Illustrator 23.1.1, SVG Export Plug-In . SVG Version: 6.00 Build 0)  -->

<svg
   xmlns:dc="http://purl.org/dc/elements/1.1/"
   xmlns:cc="http://creativecommons.org/ns#"
   xmlns:rdf="http://www.w3.org/1999/02/22-rdf-syntax-ns#"
   xmlns:svg="http://www.w3.org/2000/svg"
   xmlns="http://www.w3.org/2000/svg"
   xmlns:sodipodi="http://sodipodi.sourceforge.net/DTD/sodipodi-0.dtd"
   xmlns:inkscape="http://www.inkscape.org/namespaces/inkscape"
   version="1.1"
   id="DISEÑO"
   x="0px"
   y="0px"
   viewBox="0 0 548.48 132.55"
   enable-background="new 0 0 548.48 132.55"
   xml:space="preserve"
   sodipodi:docname="logo-y-w.svg"
   inkscape:version="0.92.4 (5da689c313, 2019-01-14)"><metadata
   id="metadata3956"><rdf:RDF><cc:Work
       rdf:about=""><dc:format>image/svg+xml</dc:format><dc:type
         rdf:resource="http://purl.org/dc/dcmitype/StillImage" /><dc:title></dc:title></cc:Work></rdf:RDF></metadata><defs
   id="defs3954">
		
		
		
		
		
		
		
		
		
	
		
		
		
		
		
		
		
		
	</defs><sodipodi:namedview
   pagecolor="#ffffff"
   bordercolor="#666666"
   borderopacity="1"
   objecttolerance="10"
   gridtolerance="10"
   guidetolerance="10"
   inkscape:pageopacity="0"
   inkscape:pageshadow="2"
   inkscape:window-width="1920"
   inkscape:window-height="1001"
   id="namedview3952"
   showgrid="false"
   inkscape:pagecheckerboard="true"
   inkscape:zoom="1.5898484"
   inkscape:cx="200.01908"
   inkscape:cy="48.663259"
   inkscape:window-x="-9"
   inkscape:window-y="-9"
   inkscape:window-maximized="1"
   inkscape:current-layer="g3949" />
<g
   id="g3949">
	<path
   fill-rule="evenodd"
   clip-rule="evenodd"
   fill="#CAA202"
   d="M69.69,23.33l12.45,32.79l35.05,1.71L89.83,79.82l9.21,33.85   L69.68,94.45l-29.35,19.22l9.2-33.86L22.19,57.84l35.05-1.71L69.69,23.33z M69.69,0l18.26,48.12l51.42,2.51L99.24,82.88   l13.51,49.67l-43.07-28.2l-43.06,28.2l13.5-49.67L0,50.63l51.42-2.51L69.69,0z"
   id="path3909" />
	<path
   style="clip-rule:evenodd;fill:#ffffff;fill-rule:evenodd;fill-opacity:1"
   inkscape:connector-curvature="0"
   id="path3911"
   d="m 242.25,121.27 c 0,0.78 -0.44,1.25 -1.22,1.25 h -1.84 v 2.75 h 11.11 c 7.37,0 11.86,-3.06 11.86,-10.18 0,-7.43 -4.59,-10.52 -11.68,-10.52 h -11.33 v 2.75 h 1.87 c 0.78,0 1.22,0.47 1.22,1.25 z m 5.87,-13.95 h 1.44 c 4.12,0 5.99,1.4 5.99,7.58 0,6.18 -1.87,7.62 -5.99,7.62 h -1.44 z" /><path
   style="clip-rule:evenodd;fill:#ffffff;fill-rule:evenodd;fill-opacity:1"
   inkscape:connector-curvature="0"
   id="path3913"
   d="m 267.73,121.27 c 0,0.78 -0.44,1.25 -1.22,1.25 h -1.9 v 2.75 h 20.73 v -8.46 h -2.9 c 0,5.03 -1.75,5.71 -5.03,5.71 h -3.81 v -6.49 h 1.87 c 1.12,0 1.56,1.44 1.56,2.59 v 0.75 h 2.59 v -9.43 h -2.59 v 0.69 c 0,1.94 -0.66,2.65 -2.47,2.65 h -0.97 v -5.96 h 3.09 c 4,0 5.74,0.69 5.74,5.18 h 2.9 v -7.93 h -20.76 v 2.75 h 1.94 c 0.78,0 1.22,0.47 1.22,1.25 v 12.7 z" /><path
   style="clip-rule:evenodd;fill:#ffffff;fill-rule:evenodd;fill-opacity:1"
   inkscape:connector-curvature="0"
   id="path3915"
   d="m 314.42,125.27 v -8.52 h -2.9 c 0,3.37 -0.59,5.78 -4.34,5.78 h -3.4 v -13.96 c 0,-0.78 0.44,-1.25 1.22,-1.25 h 1.94 v -2.75 h -12.18 v 2.75 h 1.94 c 0.78,0 1.22,0.47 1.22,1.25 v 12.71 c 0,0.78 -0.44,1.25 -1.22,1.25 h -1.9 v 2.75 h 19.62 z" /><path
   style="clip-rule:evenodd;fill:#ffffff;fill-rule:evenodd;fill-opacity:1"
   inkscape:connector-curvature="0"
   id="path3917"
   d="m 319.81,121.27 c 0,0.78 -0.44,1.25 -1.22,1.25 h -1.9 v 2.75 h 20.73 v -8.46 h -2.9 c 0,5.03 -1.75,5.71 -5.03,5.71 h -3.81 v -6.49 h 1.87 c 1.12,0 1.56,1.44 1.56,2.59 v 0.75 h 2.59 v -9.43 h -2.59 v 0.69 c 0,1.94 -0.66,2.65 -2.47,2.65 h -0.97 v -5.96 h 3.09 c 3.99,0 5.74,0.69 5.74,5.18 h 2.9 v -7.93 h -20.76 v 2.75 h 1.94 c 0.78,0 1.22,0.47 1.22,1.25 v 12.7 z" /><path
   style="clip-rule:evenodd;fill:#ffffff;fill-rule:evenodd;fill-opacity:1"
   inkscape:connector-curvature="0"
   id="path3919"
   d="m 339.69,104.57 v 2.75 h 0.66 c 1.59,0 2.09,0.37 2.62,1.94 l 5.43,16.01 h 5.56 l 5.4,-16.01 c 0.53,-1.56 1.03,-1.94 2.4,-1.94 h 0.75 v -2.75 h -9.12 v 2.75 h 1.78 c 0.62,0 0.97,0.22 0.94,0.65 0.03,0.53 -0.28,1.37 -0.47,1.97 l -3.31,10.24 h -0.06 l -3.28,-10.24 c -0.19,-0.59 -0.5,-1.44 -0.5,-1.97 0,-0.44 0.34,-0.65 0.97,-0.65 h 2 v -2.75 z" /><path
   style="clip-rule:evenodd;fill:#ffffff;fill-rule:evenodd;fill-opacity:1"
   inkscape:connector-curvature="0"
   id="path3921"
   d="m 368.63,104.57 -5.21,15.61 c -0.62,1.9 -1.06,2.34 -2.15,2.34 h -1.06 v 2.75 h 9.18 v -2.75 h -0.9 c -0.84,0 -1.94,-0.09 -1.94,-0.59 0,-0.44 0.12,-0.91 0.47,-2 l 0.38,-1.25 h 6.37 l 0.66,2.25 c 0.13,0.47 0.16,0.81 0.16,1.13 0,0.34 -0.78,0.47 -1.72,0.47 h -0.94 v 2.75 h 11.39 v -2.75 h -1.06 c -1.09,0 -1.53,-0.44 -2.15,-2.34 l -5.22,-15.61 h -6.26 z m 1.87,4.65 h 0.06 l 2.25,6.71 h -4.53 z" /><path
   style="clip-rule:evenodd;fill:#ffffff;fill-rule:evenodd;fill-opacity:1"
   inkscape:connector-curvature="0"
   id="path3923"
   d="m 395.13,104.57 h -10.05 v 2.75 h 1.94 c 0.78,0 1.22,0.47 1.22,1.25 v 12.71 c 0,0.78 -0.44,1.25 -1.22,1.25 h -1.9 v 2.75 h 9.65 v -2.75 h -1.9 c -0.78,0 -1.22,-0.47 -1.22,-1.25 v -11.39 h 0.06 l 8.68,15.39 h 6.31 v -16.7 c 0,-0.78 0.44,-1.25 1.22,-1.25 h 1.87 v -2.75 h -9.61 v 2.75 h 1.9 c 0.78,0 1.22,0.47 1.22,1.25 v 10.27 h -0.06 z" /><path
   style="clip-rule:evenodd;fill:#ffffff;fill-rule:evenodd;fill-opacity:1"
   inkscape:connector-curvature="0"
   id="path3925"
   d="m 415.17,112.5 c 0,-3.18 0.93,-5.18 4.53,-5.18 v 13.95 c 0,0.78 -0.43,1.25 -1.22,1.25 h -1.94 v 2.75 h 12.11 v -2.75 h -1.87 c -0.78,0 -1.22,-0.47 -1.22,-1.25 v -13.95 c 3.59,0 4.53,2 4.53,5.18 h 2.9 v -7.93 h -20.73 v 7.93 z" /><path
   style="clip-rule:evenodd;fill:#ffffff;fill-rule:evenodd;fill-opacity:1"
   inkscape:connector-curvature="0"
   id="path3927"
   d="m 438.51,121.27 c 0,0.78 -0.44,1.25 -1.22,1.25 h -1.9 v 2.75 h 20.73 v -8.46 h -2.9 c 0,5.03 -1.75,5.71 -5.03,5.71 h -3.81 v -6.49 h 1.87 c 1.12,0 1.56,1.44 1.56,2.59 v 0.75 h 2.59 v -9.43 h -2.59 v 0.69 c 0,1.94 -0.65,2.65 -2.46,2.65 h -0.97 v -5.96 h 3.09 c 4,0 5.74,0.69 5.74,5.18 h 2.9 v -7.93 h -20.76 v 2.75 h 1.94 c 0.78,0 1.22,0.47 1.22,1.25 z" />
	<path
   style="clip-rule:evenodd;fill:#ffffff;fill-rule:evenodd;fill-opacity:1"
   inkscape:connector-curvature="0"
   id="path3931"
   d="m 153.56,87.13 c 0,1.71 -0.95,2.73 -2.66,2.73 h -4.16 v 6 h 45.29 V 77.37 h -6.35 c 0,10.98 -3.82,12.48 -10.98,12.48 h -8.32 V 75.67 h 4.09 c 2.45,0 3.41,3.14 3.41,5.66 v 1.64 h 5.66 v -20.6 h -5.66 v 1.5 c 0,4.23 -1.43,5.8 -5.39,5.8 h -2.12 V 56.63 h 6.75 c 8.73,0 12.55,1.5 12.55,11.32 h 6.35 V 50.63 h -45.36 v 6 h 4.23 c 1.71,0 2.66,1.02 2.66,2.73 z" /><path
   style="clip-rule:evenodd;fill:#ffffff;fill-rule:evenodd;fill-opacity:1"
   inkscape:connector-curvature="0"
   id="path3933"
   d="m 238.11,50.02 h -5.66 l -1.22,3.2 c -3.89,-2.45 -8.32,-3.95 -12.96,-3.95 -9.41,0 -19.58,3.07 -19.58,14.37 0,19.57 29.54,11.69 29.54,21.4 0,3.86 -4.3,5.83 -7.85,5.83 -8.05,0 -13.98,-4.95 -14.87,-12.07 h -6.34 v 17.8 h 5.73 l 1.77,-3.62 c 4.3,3.14 9.62,4.23 14.87,4.23 9.41,0 18.83,-3.68 18.83,-14.55 0,-19.44 -29.54,-12.53 -29.54,-21.16 0,-4.6 3.68,-5.9 7.64,-5.9 6,0 12.35,4.05 13.37,11.25 h 6.27 z" /><path
   style="clip-rule:evenodd;fill:#ffffff;fill-rule:evenodd;fill-opacity:1"
   inkscape:connector-curvature="0"
   id="path3935"
   d="m 250.59,67.96 c 0,-6.96 2.05,-11.32 9.89,-11.32 v 30.49 c 0,1.71 -0.95,2.73 -2.66,2.73 h -4.23 v 6 h 26.47 v -6 h -4.09 c -1.71,0 -2.66,-1.02 -2.66,-2.73 v -30.5 c 7.85,0 9.89,4.37 9.89,11.32 h 6.34 V 50.63 h -45.29 v 17.33 z" /><path
   style="clip-rule:evenodd;fill:#ffffff;fill-rule:evenodd;fill-opacity:1"
   inkscape:connector-curvature="0"
   id="path3937"
   d="m 300.91,87.13 c 0,1.71 -0.96,2.73 -2.66,2.73 h -4.16 v 6 h 26.53 v -6 h -4.23 c -1.71,0 -2.66,-1.02 -2.66,-2.73 V 75.39 h 5.59 c 5.53,0 6.21,0.96 6.21,5.05 v 5.59 c 0,7.98 4.37,11.19 10.85,11.19 8.8,0 11.12,-5.05 11.12,-11.67 v -2.32 h -4.57 v 2.73 c 0,2.12 -0.47,4.23 -2.25,4.23 -1.84,0 -2.32,-1.02 -2.32,-2.32 v -7.16 c 0,-5.59 -2.86,-7.23 -7.98,-8.66 v -0.14 c 5.94,-0.82 10.3,-3.75 10.3,-10.23 0,-7.3 -5.66,-11.05 -15.21,-11.05 h -31.45 v 6 h 4.23 c 1.71,0 2.66,1.02 2.66,2.73 z m 12.82,-30.5 h 4.91 c 6.27,0 9.21,1.16 9.21,6.21 0,5.45 -2.52,6.55 -7.57,6.55 h -6.55 z" /><path
   style="clip-rule:evenodd;fill:#ffffff;fill-rule:evenodd;fill-opacity:1"
   inkscape:connector-curvature="0"
   id="path3939"
   d="m 357.73,87.13 c 0,1.71 -0.96,2.73 -2.66,2.73 h -4.16 v 6 H 396.2 V 77.37 h -6.34 c 0,10.98 -3.82,12.48 -10.98,12.48 h -8.32 V 75.67 h 4.09 c 2.45,0 3.41,3.14 3.41,5.66 v 1.64 h 5.66 v -20.6 h -5.66 v 1.5 c 0,4.23 -1.43,5.8 -5.39,5.8 h -2.11 V 56.63 h 6.75 c 8.73,0 12.55,1.5 12.55,11.32 h 6.34 V 50.63 h -45.36 v 6 h 4.23 c 1.71,0 2.66,1.02 2.66,2.73 z" /><path
   style="clip-rule:evenodd;fill:#ffffff;fill-rule:evenodd;fill-opacity:1"
   inkscape:connector-curvature="0"
   id="path3941"
   d="M 446.79,95.86 V 77.24 h -6.35 c 0,7.37 -1.3,12.62 -9.48,12.62 h -7.43 v -30.5 c 0,-1.71 0.96,-2.73 2.66,-2.73 h 4.23 v -6 h -26.6 v 6 h 4.23 c 1.71,0 2.66,1.02 2.66,2.73 v 27.76 c 0,1.71 -0.96,2.73 -2.66,2.73 h -4.16 v 6 z" /><path
   style="clip-rule:evenodd;fill:#ffffff;fill-rule:evenodd;fill-opacity:1"
   inkscape:connector-curvature="0"
   id="path3943"
   d="M 494.33,95.86 V 77.24 h -6.34 c 0,7.37 -1.3,12.62 -9.48,12.62 h -7.44 v -30.5 c 0,-1.71 0.96,-2.73 2.66,-2.73 h 4.23 v -6 h -26.6 v 6 h 4.23 c 1.71,0 2.66,1.02 2.66,2.73 v 27.76 c 0,1.71 -0.96,2.73 -2.66,2.73 h -4.16 v 6 z" /><path
   style="clip-rule:evenodd;fill:#ffffff;fill-rule:evenodd;fill-opacity:1"
   inkscape:connector-curvature="0"
   id="path3945"
   d="m 516.42,50.63 -11.39,34.11 c -1.36,4.16 -2.32,5.12 -4.7,5.12 h -2.32 v 6 h 20.06 v -6 h -1.98 c -1.84,0 -4.23,-0.21 -4.23,-1.3 0,-0.96 0.27,-1.98 1.02,-4.37 l 0.82,-2.73 h 13.92 l 1.43,4.91 c 0.27,1.02 0.34,1.77 0.34,2.46 0,0.75 -1.7,1.02 -3.75,1.02 h -2.05 v 6 h 24.9 v -6 h -2.32 c -2.39,0 -3.34,-0.96 -4.71,-5.12 L 530.07,50.62 h -13.65 z m 4.1,10.17 h 0.14 l 4.91,14.67 h -9.89 z" />
</g>
</svg>